<svg width="82" height="83" viewBox="0 0 82 83" fill="none" xmlns="http://www.w3.org/2000/svg">
<path d="M41 2C35.8784 2 30.807 3.04706 26.0753 5.08141C21.3436 7.11575 17.0443 10.0975 13.4228 13.8565C6.10892 21.4481 2 31.7445 2 42.4807C2 60.3731 13.193 75.5534 28.676 80.9373C30.626 81.2611 31.25 80.0062 31.25 78.9133V72.072C20.447 74.5009 18.146 66.6476 18.146 66.6476C16.352 61.9519 13.817 60.697 13.817 60.697C10.268 58.1872 14.09 58.2681 14.09 58.2681C17.99 58.5515 20.057 62.4376 20.057 62.4376C23.45 68.5907 29.183 66.7691 31.406 65.7975C31.757 63.1663 32.771 61.3851 33.863 60.3731C25.205 59.3611 16.118 55.8798 16.118 40.4566C16.118 35.9633 17.6 32.3605 20.135 29.4864C19.745 28.4744 18.38 24.2644 20.525 18.7995C20.525 18.7995 23.801 17.7065 31.25 22.9285C34.331 22.0379 37.685 21.5926 41 21.5926C44.315 21.5926 47.669 22.0379 50.75 22.9285C58.199 17.7065 61.475 18.7995 61.475 18.7995C63.62 24.2644 62.255 28.4744 61.865 29.4864C64.4 32.3605 65.882 35.9633 65.882 40.4566C65.882 55.9202 56.756 59.3206 48.059 60.3326C49.463 61.5875 50.75 64.0569 50.75 67.8216V78.9133C50.75 80.0062 51.374 81.3016 53.363 80.9373C68.846 75.5129 80 60.3731 80 42.4807C80 37.1647 78.9912 31.9007 77.0313 26.9894C75.0714 22.078 72.1986 17.6155 68.5772 13.8565C64.9557 10.0975 60.6564 7.11575 55.9247 5.08141C51.193 3.04706 46.1216 2 41 2Z" fill="white"/>
</svg>
